{"title":"[IFA1] Inuyasha [m480p] [Triple Audio] [Animax Dub]","uid":8947559,"size":130982676,"categoryP":"video","categoryS":"tv_shows","magnet":"?xt=urn:btih:8f5079e39df761d6ce7ca2f7ff54b8d87f8fe90c&amp;dn=%5BIFA1%5D+Inuyasha+%5Bm480p%5D+%5BTriple+Audio%5D+%5BAnimax+Dub%5D&amp;tr=udp%3A%2F%2Ftracker.openbittorrent.com%3A80&amp;tr=udp%3A%2F%2Fopen.demonii.com%3A1337&amp;tr=udp%3A%2F%2Ftracker.coppersurfer.tk%3A6969&amp;tr=udp%3A%2F%2Fexodus.desync.com%3A6969","seeders":0,"leechers":1,"uploader":"IFA1","files":2,"time":1379808276,"description":"InuYasha (English Dub)\n\nPlot Summary: Higurashi Kagome, after being pulled down a well by a demon, finds herself in Feudal Japan, where she learns that a powerful jewel has been reborn inside her body. After the jewel shatters in an attempt to retrieve it from one of the many demons who was after its power, Kagome must join forces with the half-demon Inu Yasha (also after the jewel's power) to track down the shards of the jewel before its power falls into the wrong hands.\n\n\nInfo :\n\nType: TV Series\nAverage File Size: ~124 MB\nVideo: h264/AVC\nContainer: MKV\nAudio 1: English (Animax)\nAudio 2: English\nAudio 3: Japanese\nAnimax Audio recorded and timed by : Inuyashakagomefa1\n\nFan-Sub (used for adding Animax Audio): Blitz\n\nSource: AnimeIndia.com\n\nSubmitter's Note: If you liked the show then please seed as much as possible to keep this torrent alive because I am not sure if I can keep it alive by myself. Consider buying the official DVDs when they are available. Not for sale or rent.\n\n\nMediaInfo:\n\nGeneral\nUnique ID : 172171310159133806328786984265038132766 (0x8186FCF95D119E5F924E068E9A4B761E)\nComplete name : D:[IFA1] Inuyasha [m480p] [Triple Audio] [Animax Dub][IFA1][Mavrik][Blitz]-Inysha-048.mkv\nFormat : Matroska\nFormat version : Version 4 / Version 2\nFile size : 125 MiB\nDuration : 24mn 25s\nOverall bit rate mode : Variable\nOverall bit rate : 715 Kbps\nMovie name : AnimeIndia.com/AnimeAnimaxDub.blogspot.in\nEncoded date : UTC 2010-02-22 21:41:30\nWriting application : mkvmerge v5.9.0 ('On The Loose') built on Dec 9 2012 15:37:01\nWriting library : libebml v1.3.0 + libmatroska v1.4.0\nLanguage : jpn\n\nVideo\nID : 1\nFormat : AVC\nFormat/Info : Advanced Video Codec\nFormat profile : &lt;a class=&quot;__cf_email__&quot; href=&quot;/cdn-cgi/l/email-protection&quot; data-cfemail=&quot;feb6979996beb2cbd0cf&quot;&gt;[email&amp;#160;protected]&lt;/a&gt;&lt;script cf-hash='f9e31' type=&quot;text/javascript&quot;&gt;\n/* &lt;![CDATA[ */!function(){try{var t=&quot;currentScript&quot;in document?document.currentScript:function(){for(var t=document.getElementsByTagName(&quot;script&quot;),e=t.length;e--;)if(t[e].getAttribute(&quot;cf-hash&quot;))return t[e]}();if(t&amp;&amp;t.previousSibling){var e,r,n,i,c=t.previousSibling,a=c.getAttribute(&quot;data-cfemail&quot;);if(a){for(e=&quot;&quot;,r=parseInt(a.substr(0,2),16),n=2;a.length-n;n+=2)i=parseInt(a.substr(n,2),16)^r,e+=String.fromCharCode(i);e=document.createTextNode(e),c.parentNode.replaceChild(e,c)}}}catch(u){}}();/* ]]&gt; */&lt;/script&gt;\nFormat settings, CABAC : Yes\nFormat settings, ReFrames : 8 frames\nMuxing mode : Header stripping\nCodec ID : V_MPEG4/ISO/AVC\nDuration : 24mn 25s\nBit rate : 285 Kbps\nNominal bit rate : 325 Kbps\nWidth : 640 pixels\nHeight : 480 pixels\nDisplay aspect ratio : 4:3\nFrame rate mode : Constant\nFrame rate : 23.976 fps\nColor space : YUV\nChroma subsampling : 4:2:0\nBit depth : 8 bits\nScan type : Progressive\nBits/(Pixel*Frame) : 0.039\nStream size : 49.8 MiB (40%)\nWriting library : x264 core 56 svn-676\nEncoding settings : cabac=1 // deblock=1:1:1 / analyse=0x3:0x133 / me=umh / subme=7 / brdo=1 // me_range=16 / chroma_me=1 / trellis=2 / 8x8dct=1 / cqm=0 / deadzone=21,11 / chroma_qp_offset=0 / threads=6 / nr=0 / decimate=1 / mbaff=0 / bframes=5 / b_pyramid=1 / b_adapt=1 / b_bias=0 / direct=1 / wpredb=1 / bime=1 / keyint=250 / keyint_min=25 / scenecut=40(pre) / rc=2pass / bitrate=325 / ratetol=1.0 / rceq='blurCplx^(1-qComp)' / qcomp=0.60 / qpmin=10 / qpmax=51 / qpstep=4 / cplxblur=20.0 / qblur=0.5 / ip_ratio=1.40 / pb_ratio=1.30\nDefault : Yes\nForced : No\n\nAudio #1\nID : 2\nFormat : Vorbis\nFormat settings, Floor : 1\nCodec ID : A_VORBIS\nDuration : 24mn 25s\nBit rate mode : Variable\nBit rate : 160 Kbps\nChannel(s) : 2 channels\nSampling rate : 44.1 KHz\nCompression mode : Lossy\nStream size : 27.9 MiB (22%)\nTitle : iy48\nWriting library : libVorbis 1.0 (UTC 2002-07-17)\nLanguage : English\nDefault : Yes\nForced : No\n\nAudio #2\nID : 3\nFormat : Vorbis\nFormat settings, Floor : 1\nCodec ID : A_VORBIS\nDuration : 24mn 25s\nBit rate mode : Variable\nBit rate : 128 Kbps\nChannel(s) : 2 channels\nSampling rate : 48.0 KHz\nCompression mode : Lossy\nStream size : 22.4 MiB (18%)\nWriting library : libVorbis 1.1.1/1.1.2 (UTC 2005-03-04)\nLanguage : English\nDefault : No\nForced : No\nWriting application : Made with BeSweet v1.5b25\nEncoded_Application/Url : http://DSPguru.doom9.org\n\nAudio #3\nID : 4\nFormat : Vorbis\nFormat settings, Floor : 1\nCodec ID : A_VORBIS\nDuration : 24mn 25s\nBit rate mode : Variable\nBit rate : 128 Kbps\nChannel(s) : 2 channels\nSampling rate : 48.0 KHz\nCompression mode : Lossy\nStream size : 22.4 MiB (18%)\nWriting library : libVorbis 1.1.1/1.1.2 (UTC 2005-03-04)\nLanguage : Japanese\nDefault : No\nForced : No\nWriting application : Made with BeSweet v1.5b25\nEncoded_Application/Url : http://DSPguru.doom9.org\n\nText\nID : 5\nFormat : UTF-8\nCodec ID : S_TEXT/UTF8\nCodec ID/Info : UTF-8 Plain Text\nLanguage : English\nDefault : No\nForced : No\n\nMenu\n00:00:00.000 : :Opening\n00:01:35.533 : :Part A\n00:17:58.600 : :Part B\n00:22:09.567 : :Ending\n00:23:44.233 : :Preview\n\n\n\n","torrent":{"xt":"urn:btih:8f5079e39df761d6ce7ca2f7ff54b8d87f8fe90c","amp;dn":"%5BIFA1%5D+Inuyasha+%5Bm480p%5D+%5BTriple+Audio%5D+%5BAnimax+Dub%5D","amp;tr":["udp%3A%2F%2Ftracker.openbittorrent.com%3A80","udp%3A%2F%2Fopen.demonii.com%3A1337","udp%3A%2F%2Ftracker.coppersurfer.tk%3A6969","udp%3A%2F%2Fexodus.desync.com%3A6969"],"infoHash":"8f5079e39df761d6ce7ca2f7ff54b8d87f8fe90c","infoHashBuffer":{"type":"Buffer","data":[143,80,121,227,157,247,97,214,206,124,162,247,255,84,184,216,127,143,233,12]},"announce":[],"urlList":[]}}